<svg version="1.1" xmlns="http://www.w3.org/2000/svg" xmlns:xlink="http://www.w3.org/1999/xlink" x="0px" y="0px" width="57.98px" height="78.13px" viewBox="0 0 57.98 78.13" style="enable-background:new 0 0 57.98 78.13;" xml:space="preserve">
  <defs>
  </defs>
  <path style="fill:#D2A722;" d="M28.63,0c0.17,5.42,0.7,10.78,2.11,16.03c2.51,9.35,7.78,16.53,16.67,20.74
	c1.69,0.8,3.53,1.34,5.36,1.76c1.83,0.42,3.73,0.54,5.22,0.74c-6.89,0.31-13.29,2.83-18.45,8.02c-4.4,4.42-7.14,9.85-8.79,15.83
	c-1.39,5.02-1.92,10.16-1.9,15.02c-0.31-2.99-0.53-6.33-1.04-9.63c-1.04-6.71-3.58-12.84-7.8-18.19C14.66,43.53,7.68,39.79,0,39.32
	c2.05-0.49,5.13-0.92,7.97-1.96c9.07-3.32,14.41-10.28,17.74-19.01c1.99-5.22,2.7-10.7,2.91-16.25C28.66,1.4,28.63,0.7,28.63,0" />
</svg>